<?xml version="1.0" encoding="UTF-8"?>
<svg id="Capa_1" data-name="Capa 1" xmlns="http://www.w3.org/2000/svg" viewBox="0 0 10 9.99">
  <defs>
    <style>
      .cls-1 {
        fill: #fff;
      }
    </style>
  </defs>
  <path class="cls-1" d="M9.14,7.34c0-.24.19-.43.43-.43s.43.19.43.43v1.11c0,.43-.17.81-.45,1.09s-.67.45-1.09.45H1.54c-.43,0-.81-.17-1.09-.45-.28-.28-.45-.67-.45-1.09v-1.11c0-.24.19-.43.43-.43s.43.19.43.43v1.11c0,.19.08.36.2.49.13.13.3.2.49.2h6.9c.19,0,.36-.08.49-.2.13-.13.2-.3.2-.49,0,0,0-1.11,0-1.11ZM7.9,2.72c.17.17.17.44,0,.6-.17.17-.44.17-.6,0l-1.88-1.87v5.89c0,.24-.19.43-.43.43s-.43-.19-.43-.43V1.45l-1.88,1.87c-.17.17-.44.17-.6,0-.17-.17-.16-.44,0-.6,0,0,1.96-1.93,2.6-2.59,0,0,.11-.13.3-.13s.32.13.32.13c.64.66,2.6,2.59,2.6,2.59Z"/>
</svg>