<?xml version="1.0" encoding="UTF-8"?>
<svg id="Capa_1" data-name="Capa 1" xmlns="http://www.w3.org/2000/svg" viewBox="0 0 9 9">
  <defs>
    <style>
      .cls-1 {
        fill: #636363;
      }
    </style>
  </defs>
  <path class="cls-1" d="M8.23,6.61c0-.21.17-.38.38-.38s.38.17.38.38v1c0,.38-.16.73-.41.98-.25.25-.6.41-.98.41H1.39c-.38,0-.73-.16-.98-.41-.25-.25-.41-.6-.41-.98v-1c0-.21.17-.38.38-.38s.38.17.38.38v1c0,.17.07.33.18.44.11.11.27.18.44.18h6.21c.17,0,.33-.07.44-.18.11-.11.18-.27.18-.44v-1ZM1.88,4.55c-.15-.15-.15-.39,0-.54.15-.15.39-.15.54,0l1.69,1.69V.39c0-.21.17-.39.39-.39s.39.17.39.39v5.3l1.69-1.68c.15-.15.39-.15.54,0,.15.15.15.39,0,.54l-2.34,2.33s-.09.12-.28.12-.28-.12-.28-.12l-2.34-2.33Z"/>
</svg>