<?xml version="1.0" encoding="UTF-8"?>
<svg id="Capa_1" data-name="Capa 1" xmlns="http://www.w3.org/2000/svg" viewBox="0 0 7.65 8.91">
  <defs>
    <style>
      .cls-1 {
        fill: #636363;
        fill-rule: evenodd;
      }
    </style>
  </defs>
  <path class="cls-1" d="M2.58,2.39h0c.25,0,.46.21.46.46v4.16c0,.25-.21.46-.46.46s-.46-.21-.46-.46V2.85c0-.25.21-.46.46-.46M5.07,2.39h0c.25,0,.46.21.46.46v4.16c0,.25-.21.46-.46.46s-.46-.21-.46-.46V2.85c0-.25.21-.46.46-.46ZM6.87,2.34v5.16c0,.78-.64,1.41-1.41,1.41h-3.12c-.78,0-1.41-.64-1.41-1.41V2.34h-.38c-.3,0-.55-.25-.55-.55s.25-.55.55-.55h2.03c0-.69.56-1.24,1.24-1.24s1.24.56,1.24,1.24h2.03c.3,0,.55.25.55.55s-.25.55-.55.55h-.23Z"/>
</svg>