<?xml version="1.0" encoding="UTF-8"?>
<svg id="Capa_1" data-name="Capa 1" xmlns="http://www.w3.org/2000/svg" viewBox="0 0 20.4 20.4">
  <defs>
    <style>
      .cls-1 {
        fill: #636363;
      }

      .cls-2 {
        fill: #f3f3f3;
        fill-rule: evenodd;
      }
    </style>
  </defs>
  <path class="cls-2" d="M4.04,0h12.32c2.22,0,4.04,1.82,4.04,4.04v12.32c0,2.22-1.82,4.04-4.04,4.04H4.04c-2.22,0-4.04-1.82-4.04-4.04V4.04C0,1.82,1.82,0,4.04,0"/>
  <path class="cls-1" d="M11.17,11.88c.13,0,.27.05.37.14l1.21,1.09v.17c0,.24-.19.43-.43.43h-4.26c-.24,0-.43-.19-.43-.43v-.13l.81-.7c.21-.18.51-.18.72,0l.59.5,1.03-.93c.11-.1.24-.14.37-.14M9.03,10.52c.29,0,.53.24.53.53s-.24.53-.53.53-.53-.24-.53-.53.24-.53.53-.53ZM11.05,4.84v2.91c0,.24.19.43.43.43h2.91l-3.33-3.33ZM7.86,4.77c-1.06,0-1.92.86-1.92,1.92v6.81c0,1.06.86,1.92,1.92,1.92h4.68c1.06,0,1.92-.86,1.92-1.92v-4.47h-2.98c-.71,0-1.28-.57-1.28-1.28v-2.98h-2.34Z"/>
</svg>