<?xml version="1.0" encoding="UTF-8"?>
<svg id="Capa_1" data-name="Capa 1" xmlns="http://www.w3.org/2000/svg" viewBox="0 0 11.25 7.5">
  <defs>
    <style>
      .cls-1 {
        fill: #636363;
      }
    </style>
  </defs>
  <path class="cls-1" d="M5.62,2.62c-.62,0-1.13.5-1.13,1.12s.5,1.12,1.13,1.12,1.13-.5,1.13-1.12-.5-1.12-1.13-1.12M5.62,1.12c1.45,0,2.63,1.18,2.63,2.63s-1.18,2.63-2.63,2.63-2.63-1.18-2.63-2.63,1.18-2.63,2.63-2.63ZM5.62,0C2.28,0,.12,3.45.08,3.52c-.05.07-.08.15-.08.23,0,.07.02.14.06.2,0,0,0,0,0,0,0,.01,1.82,3.54,5.56,3.54s5.54-3.5,5.56-3.54c0,0,0,0,0,0,.04-.06.06-.13.06-.2,0-.08-.03-.17-.08-.23,0,0,0,0,0,0-.04-.06-2.2-3.52-5.54-3.52Z"/>
</svg>