<?xml version="1.0" encoding="UTF-8"?>
<svg id="Capa_1" data-name="Capa 1" xmlns="http://www.w3.org/2000/svg" viewBox="0 0 15 15">
  <defs>
    <style>
      .cls-1 {
        fill: #fff;
        fill-rule: evenodd;
      }
    </style>
  </defs>
  <path class="cls-1" d="M15,7.31c0,4.03-3.3,7.31-7.36,7.31-1.29,0-2.5-.33-3.56-.91l-4.08,1.3,1.33-3.92c-.67-1.1-1.06-2.39-1.06-3.77C.27,3.27,3.57,0,7.64,0s7.36,3.27,7.36,7.31h0ZM7.64,1.16C4.22,1.16,1.45,3.92,1.45,7.31c0,1.34.44,2.59,1.18,3.6l-.77,2.28,2.38-.76c.98.64,2.15,1.02,3.41,1.02,3.41,0,6.19-2.76,6.19-6.14S11.05,1.16,7.64,1.16h0ZM11.35,8.99c-.05-.07-.17-.12-.35-.21-.18-.09-1.07-.52-1.23-.58-.17-.06-.29-.09-.41.09-.12.18-.47.58-.57.7-.1.12-.21.13-.39.04-.18-.09-.76-.28-1.45-.89-.54-.48-.9-1.06-1-1.24-.1-.18-.01-.28.08-.37.08-.08.18-.21.27-.31.09-.11.12-.18.18-.3.06-.12.03-.22-.02-.31-.04-.09-.41-.97-.56-1.33-.15-.36-.3-.34-.41-.34s-.3.03-.3.03c0,0-.36.04-.53.22-.17.18-.63.61-.63,1.49s.65,1.73.74,1.85c.09.12,1.25,1.99,3.08,2.7,1.84.72,1.84.48,2.17.45.33-.03,1.07-.43,1.22-.85.15-.42.15-.78.11-.85h0ZM11.35,8.99"/>
</svg>